# xmcd
# Copyright (C) 1995-1998 Ti Kan
#
# Track frame offsets:
#       150
#       16686
#       33277
#       52756
#
# Disc length: 981 seconds
#
# Revision: 0
# Processed by: cddbd v1.5.1PL0 Copyright (c) Steve Scherf et al.
# Submitted via: CD-Transfer v1.0
#
DISCID=1d03d304
DTITLE=Lucas Jonathan - She's Alive
DYEAR=2005
DGENRE=
TTITLE0=She's Alive
TTITLE1=I Need Your Love
TTITLE2=Most Beautiful Time Of My Life
TTITLE3=I Need Your Love (Acoustic Version)
EXTD=
EXTT0=
EXTT1=
EXTT2=
EXTT3=
PLAYORDER=
